<svg xmlns="http://www.w3.org/2000/svg" viewBox="0 0 300 300" width="100" height="100">
  <!-- Feuille à trois folioles -->
  <path d="M100,50 Q150,120 100,190 Q50,120 100,50 Z" fill="#228b22" />
  <path d="M100,50 Q150,120 100,190 Q50,120 100,50 Z" fill="#32cd32" opacity="0.5" />
  <path d="M100,50 Q150,120 100,190 Q50,120 100,50 Z" fill="#00ff00" opacity="0.3" />
  
  <!-- Radar -->
  <!-- Base -->
  <circle cx="200" cy="200" r="100" fill="#7fff00" />
  <!-- Lignes -->
  <line x1="200" y1="100" x2="200" y2="300" stroke="#333333" stroke-width="2" />
  <line x1="100" y1="200" x2="300" y2="200" stroke="#333333" stroke-width="2" />
  <!-- Points cardinaux -->
  <text x="190" y="115" font-family="Arial, sans-serif" font-size="12" fill="#333333">N</text>
  <text x="190" y="285" font-family="Arial, sans-serif" font-size="12" fill="#333333">S</text>
  <text x="285" y="205" font-family="Arial, sans-serif" font-size="12" fill="#333333">E</text>
  <text x="100" y="205" font-family="Arial, sans-serif" font-size="12" fill="#333333">W</text>
  <!-- Feuille pour l'aiguille nord -->
  <path d="M200,100 Q190,115 185,130 Q185,140 200,150 L200,100 Z" fill="#3cb371" />
  <!-- Feuille pour l'aiguille est -->
  <path d="M250,200 Q235,190 220,185 Q210,185 200,200 L250,200 Z" fill="#2e8b57" />
  <!-- Feuille pour l'aiguille sud -->
  <path d="M200,300 Q190,285 185,270 Q185,260 200,250 L200,300 Z" fill="#008000" />
  <!-- Feuille pour l'aiguille ouest -->
  <path d="M100,200 Q115,190 130,185 Q140,185 150,200 L100,200 Z" fill="#556b2f" />
</svg>
